<svg height="20" viewBox="0 0 20 20" width="20" xmlns="http://www.w3.org/2000/svg"><path d="m12.5 14c.2761 0 .5.2239.5.5 0 .2454222-.1769086.4496-.4101355.4919429l-.0898645.0080571h-10c-.27614 0-.5-.2239-.5-.5 0-.2454222.17687704-.4496.41012499-.4919429l.08987501-.0080571zm5-3c.2761 0 .5.2239.5.5s-.2239.5-.5.5h-15c-.27614 0-.5-.2239-.5-.5s.22386-.5.5-.5zm0-3c.2761 0 .5.22386.5.5 0 .24545778-.1769086.4496079-.4101355.49194425l-.0898645.00805575h-15c-.27614 0-.5-.22386-.5-.5 0-.24545778.17687704-.4496079.41012499-.49194425l.08987501-.00805575zm0-3c.2761 0 .5.22386.5.5 0 .24545778-.1769086.4496079-.4101355.49194425l-.0898645.00805575h-15c-.27614 0-.5-.22386-.5-.5 0-.24545778.17687704-.4496079.41012499-.49194425l.08987501-.00805575z" fill="#212121"/></svg>