<svg enable-background="new 0 0 48 48" height="48" viewBox="0 0 48 48" width="48" xmlns="http://www.w3.org/2000/svg"><path d="m46 26.48c0 4.527-3.268 7.52-7.3 7.52h-29.401c-4.03 0-7.299-3.366-7.299-7.52v-4.96c0-4.154 3.269-7.52 7.299-7.52h29.401c4.032 0 7.3 3.366 7.3 7.52z" fill="#3f51b5"/><ellipse cx="24" cy="24" fill="#3f51b5" rx="14.902" ry="15"/><g fill="#fff"><path d="m17 19h-2.736l-.837 5.859-1.039-5.831h-2.458l-1.066 5.831-.81-5.831h-2.788l2.331 9.972h2.459l1.064-6.146 1.089 6.146h2.484z"/><path d="m19 22h2.508v7h-2.508z"/><path d="m21.5 19.747c0 .693-.56 1.253-1.25 1.253s-1.25-.56-1.25-1.253c0-.696.56-1.258 1.25-1.258s1.25.562 1.25 1.258z"/><path d="m38.561 16c-4.818 0-7.979 0-7.979 0s-5.582.193-5.582 5.914v4.336s.101 2.941-3 5.75h16.785s5.215 0 5.215-5.553c0-4.879 0-4.879 0-4.879s-.228-5.568-5.439-5.568zm-1.222 5.369h-5.651v2.236h5.094v2.344h-5.094v3.051h-2.688v-10h8.339zm2.911-2.88c.689 0 1.25.562 1.25 1.258 0 .693-.561 1.253-1.25 1.253s-1.25-.56-1.25-1.253c0-.696.561-1.258 1.25-1.258zm1.258 10.511h-2.508v-7h2.508z"/></g></svg>